<svg width="29" height="30" viewBox="0 0 29 30" fill="none" xmlns="http://www.w3.org/2000/svg">
<path fill-rule="evenodd" clip-rule="evenodd" d="M29 15C29 23.0076 22.5076 29.5 14.5 29.5C6.49238 29.5 0 23.0076 0 15C0 6.99238 6.49238 0.5 14.5 0.5C22.5076 0.5 29 6.99238 29 15ZM23.7897 13.8617C24.0241 14.1965 24.157 14.5916 24.1715 15C24.1778 15.3996 24.0709 15.7927 23.863 16.134C23.6552 16.4753 23.3549 16.7508 22.997 16.9285C23.0139 17.1412 23.0139 17.3538 22.997 17.5665C22.997 20.8145 19.2125 23.4535 14.5435 23.4535C9.8745 23.4535 6.09 20.8145 6.09 17.5665C6.07367 17.3541 6.07367 17.1409 6.09 16.9285C5.8135 16.7991 5.56831 16.6113 5.37127 16.3781C5.17424 16.1449 5.03003 15.8718 4.94858 15.5776C4.86712 15.2833 4.85034 14.975 4.89939 14.6736C4.94844 14.3723 5.06216 14.0852 5.23273 13.832C5.4033 13.5787 5.62667 13.3655 5.8875 13.2068C6.14832 13.0481 6.44041 12.9478 6.74369 12.9128C7.04696 12.8777 7.35424 12.9087 7.64438 13.0037C7.93453 13.0987 8.20066 13.2554 8.4245 13.463C10.0953 12.3299 12.0609 11.7099 14.0795 11.6795L15.1525 6.648C15.1645 6.58975 15.188 6.53447 15.2216 6.48537C15.2552 6.43627 15.2982 6.39432 15.3481 6.36195C15.398 6.32958 15.4538 6.30743 15.5123 6.2968C15.5708 6.28617 15.6309 6.28725 15.689 6.3L19.2415 7.0105C19.415 6.71243 19.689 6.48596 20.0144 6.37174C20.3399 6.25752 20.6953 6.26303 21.0171 6.38727C21.3388 6.51152 21.6057 6.74636 21.7699 7.04966C21.934 7.35295 21.9847 7.70483 21.9128 8.04214C21.841 8.37944 21.6512 8.68008 21.3776 8.89008C21.1041 9.10009 20.7646 9.20571 20.4202 9.18799C20.0758 9.17027 19.7489 9.03037 19.4984 8.7934C19.2478 8.55642 19.0899 8.2379 19.053 7.895L15.95 7.2425L15.0075 11.7665C17.0015 11.8093 18.9405 12.4287 20.59 13.55C20.8102 13.3383 21.0736 13.1768 21.3622 13.0765C21.6507 12.9763 21.9576 12.9397 22.2616 12.9694C22.5656 12.999 22.8596 13.0941 23.1234 13.2481C23.3872 13.4022 23.6145 13.6115 23.7897 13.8617ZM9.91558 15.644C9.80974 15.8024 9.73613 15.9801 9.69895 16.1669C9.66177 16.3537 9.66175 16.546 9.69889 16.7328C9.7739 17.1101 9.99571 17.4422 10.3155 17.6559C10.6354 17.8697 11.027 17.9476 11.4043 17.8726C11.5911 17.8355 11.7688 17.7619 11.9272 17.6561C12.0856 17.5503 12.2216 17.4143 12.3274 17.256C12.5412 16.9361 12.6191 16.5445 12.5441 16.1672C12.4691 15.7899 12.2473 15.4578 11.9275 15.2441C11.6076 15.0303 11.216 14.9524 10.8387 15.0274C10.4614 15.1024 10.1293 15.3242 9.91558 15.644ZM14.5145 21.554C15.8014 21.6072 17.0677 21.2713 18.096 20.4955C18.1729 20.4205 18.2169 20.318 18.2182 20.2106C18.2196 20.1032 18.1782 19.9997 18.1033 19.9228C18.0661 19.8847 18.0219 19.8543 17.973 19.8333C17.9241 19.8123 17.8716 19.8012 17.8184 19.8005C17.711 19.7991 17.6074 19.8405 17.5305 19.9155C16.6505 20.5468 15.5814 20.8588 14.5 20.8C13.4199 20.8483 12.3558 20.5259 11.484 19.8865C11.4089 19.8248 11.3135 19.7933 11.2164 19.7981C11.1193 19.8029 11.0275 19.8436 10.9588 19.9123C10.8901 19.981 10.8494 20.0728 10.8446 20.1699C10.8398 20.267 10.8713 20.3624 10.933 20.4375C11.9617 21.2127 13.2275 21.6073 14.5145 21.554ZM17.029 17.7139C17.2683 17.8734 17.5341 18.016 17.8205 18.016C18.0172 18.0183 18.2122 17.9805 18.3938 17.905C18.5754 17.8295 18.7397 17.7177 18.8768 17.5767C19.0138 17.4356 19.1206 17.2681 19.1908 17.0843C19.261 16.9006 19.2931 16.7045 19.285 16.508C19.2849 16.2575 19.2199 16.0114 19.0964 15.7935C18.9729 15.5756 18.7951 15.3934 18.5802 15.2647C18.3653 15.136 18.1208 15.0651 17.8704 15.059C17.62 15.0529 17.3723 15.1117 17.1514 15.2298C16.9306 15.3478 16.744 15.5211 16.61 15.7327C16.476 15.9443 16.3991 16.187 16.3868 16.4372C16.3744 16.6873 16.4271 16.9364 16.5397 17.1602C16.6522 17.3839 16.8208 17.5747 17.029 17.7139Z" fill="white"/>
</svg>
