<svg width="27" height="27" viewBox="0 0 27 27" fill="none" xmlns="http://www.w3.org/2000/svg">
<path fill-rule="evenodd" clip-rule="evenodd" d="M13.5 0.5C6.04125 0.5 0 6.54125 0 14C0 19.9737 3.86437 25.0194 9.23062 26.8081C9.90562 26.9262 10.1587 26.5212 10.1587 26.1669C10.1587 25.8462 10.1419 24.7831 10.1419 23.6525C6.75 24.2769 5.8725 22.8256 5.6025 22.0662C5.45063 21.6781 4.7925 20.48 4.21875 20.1594C3.74625 19.9062 3.07125 19.2819 4.20187 19.265C5.265 19.2481 6.02437 20.2437 6.2775 20.6487C7.4925 22.6906 9.43312 22.1169 10.2094 21.7625C10.3275 20.885 10.6819 20.2944 11.07 19.9569C8.06625 19.6194 4.9275 18.455 4.9275 13.2912C4.9275 11.8231 5.45063 10.6081 6.31125 9.66312C6.17625 9.32562 5.70375 7.94187 6.44625 6.08562C6.44625 6.08562 7.57687 5.73125 10.1587 7.46937C11.2387 7.16562 12.3862 7.01375 13.5337 7.01375C14.6812 7.01375 15.8287 7.16562 16.9087 7.46937C19.4906 5.71437 20.6212 6.08562 20.6212 6.08562C21.3637 7.94187 20.8913 9.32562 20.7563 9.66312C21.6169 10.6081 22.14 11.8062 22.14 13.2912C22.14 18.4719 18.9844 19.6194 15.9806 19.9569C16.47 20.3787 16.8919 21.1887 16.8919 22.4544C16.8919 24.26 16.875 25.7112 16.875 26.1669C16.875 26.5212 17.1281 26.9431 17.8031 26.8081C20.4831 25.9033 22.8118 24.1809 24.4616 21.8833C26.1114 19.5857 26.9992 16.8286 27 14C27 6.54125 20.9588 0.5 13.5 0.5Z" fill="white"/>
</svg>
