<svg width="28" height="29" viewBox="0 0 28 29" fill="none" xmlns="http://www.w3.org/2000/svg">
<path d="M14.0869 0.889648C6.41071 0.889648 0.1875 7.11173 0.1875 14.7879C0.1875 22.4642 6.41071 28.6874 14.0869 28.6874C21.7625 28.6874 27.9857 22.4642 27.9857 14.7879C27.9857 7.11173 21.7625 0.889648 14.0869 0.889648ZM21.9713 10.1015H21.3381C21.103 10.1015 20.7706 10.4407 20.7706 10.6577V18.5266C20.7706 18.744 21.103 19.0402 21.3381 19.0402H21.9713V20.908H16.2345V19.0402H17.4353V10.7686H17.3764L14.5726 20.908H12.4017L9.63397 10.7686H9.56392V19.0402H10.7647V20.908H5.96181V19.0402H6.57677C6.8301 19.0402 7.1625 18.7439 7.1625 18.5265V10.6577C7.1625 10.4407 6.8301 10.1015 6.57677 10.1015H5.96181V8.23374H11.9675L13.9394 15.5714H13.9936L15.9837 8.23374H21.9714V10.1015H21.9713Z" fill="white"/>
</svg>
