<svg width="30" height="24" viewBox="0 0 30 24" fill="none" xmlns="http://www.w3.org/2000/svg">
<path d="M29.7501 2.84375C28.6626 3.325 27.5001 3.65 26.2751 3.8C27.5251 3.05 28.4876 1.8625 28.9376 0.45C27.7688 1.14375 26.4751 1.65 25.0938 1.91875C23.9876 0.7375 22.4126 0 20.6751 0C17.3313 0 14.6251 2.7125 14.6251 6.05625C14.6251 6.53125 14.6751 6.99375 14.7813 7.4375C9.7501 7.1875 5.2876 4.775 2.30635 1.10625C1.7876 2 1.4876 3.04375 1.4876 4.15C1.4876 6.25 2.55635 8.10625 4.18135 9.19375C3.1876 9.16875 2.2501 8.89375 1.4376 8.4375C1.4376 8.4625 1.4376 8.4875 1.4376 8.5125C1.4376 11.45 3.5251 13.8938 6.29385 14.45C5.7876 14.5875 5.2501 14.6625 4.7001 14.6625C4.3126 14.6625 3.93135 14.625 3.5626 14.55C4.33135 16.9562 6.56885 18.7063 9.21885 18.7563C7.1501 20.3813 4.5376 21.35 1.7001 21.35C1.2126 21.35 0.731348 21.3188 0.256348 21.2625C2.93135 23 6.1126 24 9.5251 24C20.6626 24 26.7501 14.7688 26.7501 6.7625C26.7501 6.5 26.7438 6.2375 26.7313 5.98125C27.9126 5.125 28.9376 4.05625 29.7501 2.84375Z" fill="white"/>
</svg>
