<svg width="36" height="36" viewBox="0 0 36 36" fill="none" xmlns="http://www.w3.org/2000/svg">
<circle cx="17.8228" cy="17.8228" r="17.8228" fill="#CFCFCF"/>
<path d="M10.7256 14.1029L17.588 7.24052L20.3795 10.032L13.5171 16.8944L10.7256 14.1029Z" fill="#343434"/>
<path d="M21.6592 16.8944L14.7968 10.032L17.5883 7.24051L24.4507 14.1029L21.6592 16.8944Z" fill="#343434"/>
<path d="M25.6138 20.849L22.8223 18.0575L25.6138 15.2661L28.4053 18.0575L25.6138 20.849Z" fill="#343434"/>
<path d="M24.4971 22.0448L17.6347 28.9072L14.8432 26.1157L21.7056 19.2533L24.4971 22.0448Z" fill="#343434"/>
<path d="M13.5635 19.2533L20.4259 26.1157L17.6344 28.9072L10.772 22.0448L13.5635 19.2533Z" fill="#343434"/>
<path d="M9.60889 15.2987L12.4004 18.0902L9.60889 20.8817L6.8174 18.0902L9.60889 15.2987Z" fill="#343434"/>
<path d="M17.6689 15.2987L20.4604 18.0901L17.6689 20.8816L14.8775 18.0901L17.6689 15.2987Z" fill="#343434"/>
</svg>
