<svg width="37" height="36" viewBox="0 0 37 36" fill="none" xmlns="http://www.w3.org/2000/svg">
<circle cx="18.7593" cy="17.8228" r="17.8228" fill="#CFCFCF"/>
<path d="M18.0406 6.00769L6.67335 24.4795C6.21662 25.2217 6.75058 26.1772 7.62203 26.1772H14.7769C15.1808 26.1772 15.553 25.9586 15.7498 25.6058L23.1356 12.3604C23.3308 12.0103 23.3229 11.5824 23.1148 11.2398L19.9415 6.01337C19.5092 5.30146 18.4771 5.29838 18.0406 6.00769Z" fill="#343434"/>
<path d="M24.9458 18.2486L21.1429 24.4832C20.6901 25.2255 21.2244 26.1772 22.0939 26.1772H29.7955C30.6705 26.1772 31.2039 25.2146 30.7399 24.4727L26.8412 18.2381C26.402 17.5357 25.3771 17.5414 24.9458 18.2486Z" fill="#343434"/>
</svg>
