<svg width="36" height="36" viewBox="0 0 36 36" fill="none" xmlns="http://www.w3.org/2000/svg">
<circle cx="18.1138" cy="17.8228" r="17.8228" fill="#CFCFCF"/>
<path d="M23.3951 14.5631C23.2046 14.4626 22.9921 14.41 22.7762 14.41C22.5603 14.41 22.3477 14.4626 22.1573 14.5631L19.3675 16.1926L17.4183 17.2625L14.6284 18.8933C14.438 18.9938 14.2255 19.0464 14.0096 19.0464C13.7937 19.0464 13.5811 18.9938 13.3907 18.8933L11.1735 17.6188C10.991 17.5149 10.8385 17.3668 10.7302 17.1884C10.6219 17.01 10.5615 16.8073 10.5546 16.5994V14.054C10.5506 13.8438 10.6065 13.6368 10.7159 13.4565C10.8253 13.2763 10.9839 13.1301 11.1735 13.0346L13.3907 11.8118C13.5811 11.7113 13.7937 11.6588 14.0096 11.6588C14.2255 11.6588 14.438 11.7113 14.6284 11.8118L16.8457 13.0346C17.0281 13.1385 17.1806 13.2866 17.2889 13.465C17.3972 13.6434 17.4577 13.8461 17.4646 14.054V15.6835L19.3675 14.5631V12.9841C19.3724 12.7749 19.318 12.5686 19.2103 12.3884C19.1027 12.2083 18.9461 12.0615 18.7584 11.9647L14.6796 9.62144C14.4892 9.52093 14.2766 9.46835 14.0607 9.46835C13.8448 9.46835 13.6323 9.52093 13.4419 9.62144L9.31682 11.9647C9.11091 12.0436 8.93537 12.1845 8.8151 12.3674C8.69483 12.5504 8.63594 12.7662 8.64678 12.9841V17.7211C8.64368 17.9304 8.70002 18.1364 8.80941 18.3158C8.91879 18.4951 9.07685 18.6406 9.26565 18.7357L13.3907 21.0837C13.5811 21.1842 13.7937 21.2368 14.0096 21.2368C14.2255 21.2368 14.438 21.1842 14.6284 21.0837L17.4183 19.5047L19.3261 18.3842L22.1061 16.81C22.2966 16.7095 22.5091 16.6569 22.725 16.6569C22.9409 16.6569 23.1535 16.7095 23.3439 16.81L25.5611 18.0328C25.7435 18.1367 25.8961 18.2848 26.0044 18.4632C26.1127 18.6416 26.1731 18.8443 26.18 19.0522V21.5483C26.184 21.7584 26.1281 21.9654 26.0187 22.1457C25.9092 22.326 25.7507 22.4722 25.5611 22.5676L23.3439 23.841C23.1535 23.9415 22.9409 23.994 22.725 23.994C22.5091 23.994 22.2966 23.9415 22.1061 23.841L19.8889 22.6182C19.7065 22.5143 19.5539 22.3662 19.4456 22.1878C19.3374 22.0094 19.2769 21.8067 19.27 21.5988V19.9632L17.4183 21.0319V22.6615C17.4143 22.8717 17.4702 23.0787 17.5796 23.2589C17.689 23.4392 17.8476 23.5854 18.0371 23.6809L22.1622 26.0241C22.3526 26.1246 22.5652 26.1772 22.7811 26.1772C22.997 26.1772 23.2095 26.1246 23.3999 26.0241L27.525 23.6809C27.7063 23.5765 27.8578 23.4283 27.9652 23.2502C28.0726 23.0721 28.1324 22.8699 28.139 22.6627V17.9245C28.143 17.7143 28.0871 17.5073 27.9776 17.327C27.8682 17.1468 27.7097 17.0006 27.5201 16.9051L23.3951 14.5631Z" fill="#343434"/>
</svg>
