<svg width="151" height="58" viewBox="0 0 151 58" fill="none" xmlns="http://www.w3.org/2000/svg">
<rect width="8.2055" height="28.9791" transform="matrix(0.866023 0.500003 -2.20303e-08 1 25.0649 0)" fill="#595959"/>
<rect width="8.2055" height="28.9745" transform="matrix(0.866023 0.500003 -0.866023 0.500003 25.0928 28.9748)" fill="#2F2F2F"/>
<rect width="8.2055" height="27.7802" transform="matrix(0.866023 0.500003 -2.20303e-08 1 0 15.6919)" fill="#A2A2A2"/>
<rect width="8.2055" height="27.7281" transform="matrix(0.866023 0.500003 -0.866023 0.500003 25.0928 0.0202637)" fill="#A2A2A2"/>
<rect width="8.2055" height="28.9791" transform="matrix(0.866023 0.500003 -2.20303e-08 1 34.2065 5.2124)" fill="#595959"/>
<rect width="8.2055" height="28.9745" transform="matrix(0.866023 0.500003 -0.866023 0.500003 34.2349 34.187)" fill="#2F2F2F"/>
<rect width="8.2055" height="28.9747" transform="matrix(0.866023 0.500003 -2.20303e-08 1 9.1416 19.7099)" fill="#A2A2A2"/>
<rect width="8.2055" height="28.9745" transform="matrix(0.866023 0.500003 -0.866023 0.500003 34.2349 5.23273)" fill="#A2A2A2"/>
<rect width="8.2055" height="43.3473" transform="matrix(0.866023 0.500003 -2.20303e-08 1 43.2886 10.425)" fill="#595959"/>
<rect width="8.2055" height="28.9745" transform="matrix(0.866023 0.500003 -0.866023 0.500003 43.3164 39.3997)" fill="#2F2F2F"/>
<rect width="8.2055" height="28.9747" transform="matrix(0.866023 0.500003 -2.20303e-08 1 18.2236 24.9225)" fill="#A2A2A2"/>
<rect width="8.2055" height="28.9745" transform="matrix(0.866023 0.500003 -0.866023 0.500003 43.3164 10.4454)" fill="#A2A2A2"/>
<path fill-rule="evenodd" clip-rule="evenodd" d="M119.881 16.4282C121.629 16.4282 123.189 16.8651 124.563 17.7391C125.961 18.588 127.059 19.7865 127.858 21.3346C128.657 22.8578 129.057 24.6181 129.057 26.6156C129.057 28.6132 128.657 30.386 127.858 31.9341C127.059 33.4822 125.973 34.6932 124.6 35.5671C123.227 36.441 121.691 36.878 119.993 36.878C118.595 36.878 117.322 36.5783 116.173 35.9791C115.049 35.3549 114.163 34.6557 113.514 33.8817V36.3911H109.656V6.18665L113.514 8.78761V19.6867C114.088 18.8627 114.949 18.1136 116.098 17.4394C117.247 16.7653 118.508 16.4282 119.881 16.4282ZM119.356 19.9488C118.183 19.9488 117.134 20.236 116.21 20.8103C115.312 21.3846 114.6 22.1836 114.076 23.2073C113.576 24.2061 113.326 25.3422 113.326 26.6156C113.326 27.8891 113.576 29.0376 114.076 30.0614C114.6 31.0601 115.312 31.8592 116.21 32.4584C117.134 33.0577 118.183 33.3573 119.356 33.3573C120.53 33.3573 121.566 33.0577 122.465 32.4584C123.364 31.8592 124.063 31.0601 124.563 30.0614C125.087 29.0376 125.349 27.8891 125.349 26.6156C125.349 25.3422 125.087 24.2061 124.563 23.2073C124.063 22.1836 123.364 21.3846 122.465 20.8103C121.566 20.236 120.53 19.9488 119.356 19.9488ZM82.1104 50.7255V16.8027H78.2527V19.2747C77.6035 18.5006 76.7171 17.8389 75.5935 17.2896C74.4948 16.7153 73.2589 16.4282 71.8856 16.4282C70.1627 16.4282 68.6022 16.8651 67.2039 17.7391C65.8306 18.613 64.732 19.824 63.908 21.3721C63.109 22.8952 62.7095 24.6555 62.7095 26.6531C62.7095 28.6257 63.1215 30.386 63.9454 31.9341C64.7694 33.4822 65.8805 34.6932 67.2788 35.5671C68.6771 36.441 70.2501 36.878 71.9979 36.878C73.3712 36.878 74.6072 36.5534 75.7058 35.9042C76.8294 35.255 77.6784 34.5309 78.2527 33.7319V48.1245L82.1104 50.7255ZM75.556 32.4584C74.6571 33.0327 73.6084 33.3199 72.4099 33.3199C71.2364 33.3199 70.2002 33.0327 69.3013 32.4584C68.4024 31.8592 67.6908 31.0601 67.1664 30.0614C66.6671 29.0626 66.4174 27.9265 66.4174 26.6531C66.4174 25.3797 66.6671 24.2435 67.1664 23.2448C67.6908 22.221 68.4024 21.422 69.3013 20.8477C70.2002 20.2485 71.2364 19.9488 72.4099 19.9488C73.6084 19.9488 74.6571 20.2485 75.556 20.8477C76.4549 21.422 77.154 22.221 77.6534 23.2448C78.1528 24.2435 78.4025 25.3797 78.4025 26.6531C78.4025 27.9265 78.1528 29.0626 77.6534 30.0614C77.154 31.0601 76.4549 31.8592 75.556 32.4584ZM100.387 16.8402V28.6756C100.387 30.1987 99.9006 31.3847 98.9268 32.2337C97.953 33.0827 96.7919 33.5071 95.4436 33.5071C94.3699 33.5071 93.4835 33.2574 92.7844 32.7581C92.1102 32.2337 91.6109 31.547 91.2863 30.6981C90.9866 29.8491 90.8368 28.9253 90.8368 27.9265V16.8402H86.9791V28.9752C86.9791 31.4472 87.6158 33.3823 88.8892 34.7806C90.1627 36.1788 91.8231 36.878 93.8705 36.878C95.4186 36.878 96.742 36.5284 97.8406 35.8293C98.9642 35.1052 99.8132 34.2812 100.387 33.3573V36.5034H104.245V16.8402H100.387ZM150.101 33.9191H150.139L148.229 31.1101C147.679 31.5845 146.98 32.0839 146.131 32.6082C145.282 33.1076 144.171 33.3573 142.798 33.3573C140.9 33.3573 139.327 32.8454 138.079 31.8217C136.855 30.773 136.131 29.3622 135.907 27.5894H150.963L151 25.9415C151 24.0438 150.601 22.3833 149.802 20.9601C149.003 19.5369 147.929 18.4257 146.581 17.6267C145.232 16.8027 143.734 16.3907 142.086 16.3907C140.289 16.3907 138.628 16.8152 137.105 17.6642C135.582 18.4881 134.358 19.6867 133.435 21.2597C132.511 22.8078 132.049 24.6805 132.049 26.8778C132.049 28.8004 132.486 30.5233 133.36 32.0464C134.234 33.5446 135.445 34.7306 136.993 35.6045C138.566 36.4535 140.376 36.878 142.423 36.878C143.947 36.878 145.407 36.5783 146.805 35.9791C148.204 35.3798 149.302 34.6932 150.101 33.9191ZM138.229 20.9976C139.327 20.2984 140.613 19.9488 142.086 19.9488C142.91 19.9488 143.684 20.1361 144.408 20.5107C145.133 20.8602 145.732 21.3596 146.206 22.0088C146.706 22.658 146.993 23.4071 147.068 24.256V24.5182H136.056C136.406 22.8453 137.13 21.6717 138.229 20.9976ZM110.162 50.513H111.207V46.2019H112.445V45.1875H111.207V43.8282H110.162V45.1875H109.057V46.2019H110.162V50.513ZM88.3598 47.8451C88.3598 48.1968 88.4376 48.5113 88.5931 48.7885C88.7554 49.059 88.965 49.2754 89.222 49.4377C89.4857 49.5933 89.7664 49.671 90.0639 49.671C90.4021 49.671 90.6962 49.5831 90.9464 49.4073C91.1966 49.2315 91.3995 49.0489 91.5551 48.8595L92.1332 49.5696C92.0048 49.7522 91.8289 49.9246 91.6058 50.0869C91.3826 50.2425 91.129 50.3709 90.845 50.4724C90.561 50.5671 90.2634 50.6144 89.9524 50.6144C89.4655 50.6144 89.0259 50.4927 88.6337 50.2492C88.2415 50.0058 87.9304 49.6744 87.7005 49.2551C87.4773 48.8359 87.3657 48.3659 87.3657 47.8451C87.3657 47.3177 87.4773 46.8477 87.7005 46.4352C87.9304 46.0159 88.2415 45.6845 88.6337 45.4411C89.0259 45.1976 89.4655 45.0759 89.9524 45.0759C90.446 45.0759 90.8856 45.1773 91.271 45.3802C91.6565 45.5763 91.9439 45.8333 92.1332 46.1511L91.5551 46.8612C91.3995 46.6313 91.1764 46.4352 90.8856 46.2729C90.6015 46.1038 90.3243 46.0193 90.0538 46.0193C89.736 46.0193 89.4486 46.1004 89.1916 46.2627C88.9346 46.4183 88.7317 46.6347 88.583 46.9119C88.4342 47.1824 88.3598 47.4935 88.3598 47.8451ZM96.101 46.3134C96.0334 46.2796 95.9488 46.2526 95.8474 46.2323C95.7527 46.2052 95.6513 46.1917 95.5431 46.1917C95.3267 46.1917 95.1137 46.2492 94.904 46.3642C94.6944 46.4724 94.5186 46.6313 94.3766 46.8409C94.2413 47.0438 94.1737 47.2872 94.1737 47.5713V50.513H93.1188V45.1875H94.1737V46.1917C94.3225 45.8671 94.5456 45.6 94.8432 45.3904C95.1475 45.1807 95.4653 45.0759 95.7967 45.0759C96.0469 45.0759 96.2396 45.1097 96.3749 45.1773L96.101 46.3134ZM98.9749 50.8477L98.1025 52.846H99.2285L100.131 50.513L102.322 45.1875H101.085L99.6951 49.032C99.668 49.0996 99.641 49.1706 99.6139 49.245C99.5937 49.3126 99.57 49.3836 99.5429 49.458C99.5159 49.3836 99.4922 49.316 99.4719 49.2551C99.4516 49.1943 99.4314 49.1435 99.4111 49.103L97.7475 45.1875H96.5303L99.0053 50.7767L98.9749 50.8477ZM105.883 45.0962C106.357 45.0962 106.779 45.2145 107.151 45.4512C107.53 45.6811 107.827 46.0024 108.044 46.4149C108.26 46.8274 108.368 47.3041 108.368 47.8451C108.368 48.3794 108.26 48.8561 108.044 49.2754C107.827 49.6879 107.533 50.0125 107.161 50.2492C106.789 50.4859 106.374 50.6042 105.914 50.6042C105.535 50.6042 105.19 50.5231 104.879 50.3608C104.575 50.1985 104.335 50.0125 104.159 49.8029V52.7446H103.104V45.1773H104.159V45.9584C104.314 45.7352 104.548 45.5358 104.859 45.3599C105.17 45.1841 105.511 45.0962 105.883 45.0962ZM105.741 46.0598C105.423 46.0598 105.139 46.1376 104.889 46.2932C104.646 46.4487 104.453 46.6617 104.311 46.9322C104.176 47.1959 104.108 47.5003 104.108 47.8451C104.108 48.1833 104.176 48.4876 104.311 48.7581C104.453 49.0286 104.646 49.245 104.889 49.4073C105.139 49.5628 105.423 49.6406 105.741 49.6406C106.059 49.6406 106.34 49.5628 106.583 49.4073C106.827 49.245 107.016 49.0286 107.151 48.7581C107.293 48.4876 107.364 48.1833 107.364 47.8451C107.364 47.5003 107.293 47.1959 107.151 46.9322C107.016 46.6617 106.827 46.4487 106.583 46.2932C106.34 46.1376 106.059 46.0598 105.741 46.0598ZM118.449 47.8451C118.449 48.3861 118.327 48.8663 118.084 49.2856C117.847 49.6981 117.522 50.0227 117.11 50.2594C116.704 50.496 116.248 50.6144 115.741 50.6144C115.233 50.6144 114.774 50.496 114.361 50.2594C113.948 50.0227 113.621 49.6981 113.377 49.2856C113.14 48.8663 113.022 48.3861 113.022 47.8451C113.022 47.3041 113.14 46.8274 113.377 46.4149C113.621 45.9956 113.948 45.6676 114.361 45.4309C114.774 45.1942 115.233 45.0759 115.741 45.0759C116.248 45.0759 116.704 45.1942 117.11 45.4309C117.522 45.6676 117.847 45.9956 118.084 46.4149C118.327 46.8274 118.449 47.3041 118.449 47.8451ZM117.384 47.8451C117.391 47.4867 117.32 47.1723 117.171 46.9018C117.029 46.6245 116.833 46.4115 116.582 46.2627C116.332 46.1072 116.052 46.0294 115.741 46.0294C115.429 46.0294 115.145 46.1072 114.888 46.2627C114.638 46.4115 114.439 46.6245 114.29 46.9018C114.148 47.1723 114.08 47.4867 114.087 47.8451C114.08 48.1968 114.148 48.5113 114.29 48.7885C114.439 49.059 114.638 49.272 114.888 49.4276C115.145 49.5831 115.429 49.6609 115.741 49.6609C116.052 49.6609 116.332 49.5831 116.582 49.4276C116.833 49.272 117.029 49.059 117.171 48.7885C117.32 48.5113 117.391 48.1968 117.384 47.8451ZM124.855 46.1207C125.098 46.2424 125.315 46.398 125.504 46.5873L126.102 45.928C125.859 45.6304 125.551 45.414 125.179 45.2788C124.807 45.1435 124.462 45.0759 124.145 45.0759C123.813 45.0759 123.502 45.1401 123.211 45.2686C122.921 45.3904 122.684 45.5662 122.501 45.7961C122.326 46.0193 122.238 46.2898 122.238 46.6076C122.238 46.9863 122.329 47.2872 122.512 47.5104C122.701 47.7268 122.934 47.8959 123.211 48.0176C123.495 48.1326 123.783 48.2306 124.074 48.3118C124.27 48.3591 124.449 48.4132 124.611 48.4741C124.774 48.5282 124.902 48.6025 124.997 48.6972C125.098 48.7851 125.149 48.9102 125.149 49.0725C125.149 49.2416 125.102 49.3769 125.007 49.4783C124.919 49.573 124.811 49.644 124.682 49.6913C124.554 49.7319 124.425 49.7522 124.297 49.7522C123.959 49.7522 123.671 49.6947 123.435 49.5797C123.205 49.458 122.998 49.2923 122.816 49.0827L122.106 49.6913C122.369 50.0294 122.687 50.2695 123.059 50.4115C123.438 50.5468 123.82 50.6144 124.205 50.6144C124.53 50.6144 124.838 50.5535 125.129 50.4318C125.426 50.3033 125.666 50.1207 125.849 49.884C126.038 49.6474 126.133 49.3633 126.133 49.032C126.133 48.6465 126.045 48.349 125.869 48.1393C125.7 47.9229 125.484 47.7606 125.22 47.6524C124.956 47.5375 124.686 47.4428 124.408 47.3684C124.091 47.2872 123.823 47.1959 123.607 47.0945C123.397 46.9931 123.289 46.8206 123.282 46.5772C123.282 46.4014 123.33 46.2695 123.424 46.1816C123.519 46.0869 123.634 46.0227 123.769 45.9888C123.911 45.955 124.053 45.9381 124.195 45.9381C124.398 45.9381 124.618 45.999 124.855 46.1207ZM130.064 45.0962C130.537 45.0962 130.96 45.2145 131.332 45.4512C131.71 45.6811 132.008 46.0024 132.224 46.4149C132.441 46.8274 132.549 47.3041 132.549 47.8451C132.549 48.3794 132.441 48.8561 132.224 49.2754C132.008 49.6879 131.714 50.0125 131.342 50.2492C130.97 50.4859 130.554 50.6042 130.094 50.6042C129.715 50.6042 129.37 50.5231 129.059 50.3608C128.755 50.1985 128.515 50.0125 128.339 49.8029V52.7446H127.284V45.1773H128.339V45.9584C128.495 45.7352 128.728 45.5358 129.039 45.3599C129.35 45.1841 129.692 45.0962 130.064 45.0962ZM129.922 46.0598C129.604 46.0598 129.32 46.1376 129.07 46.2932C128.826 46.4487 128.633 46.6617 128.491 46.9322C128.356 47.1959 128.288 47.5003 128.288 47.8451C128.288 48.1833 128.356 48.4876 128.491 48.7581C128.633 49.0286 128.826 49.245 129.07 49.4073C129.32 49.5628 129.604 49.6406 129.922 49.6406C130.239 49.6406 130.52 49.5628 130.764 49.4073C131.007 49.245 131.196 49.0286 131.332 48.7581C131.474 48.4876 131.545 48.1833 131.545 47.8451C131.545 47.5003 131.474 47.1959 131.332 46.9322C131.196 46.6617 131.007 46.4487 130.764 46.2932C130.52 46.1376 130.239 46.0598 129.922 46.0598ZM138.644 50.513V45.1875H137.589V45.8874C137.42 45.671 137.193 45.4817 136.909 45.3194C136.632 45.1571 136.307 45.0759 135.935 45.0759C135.435 45.0759 134.989 45.1942 134.596 45.4309C134.204 45.6609 133.896 45.9855 133.673 46.4047C133.45 46.8172 133.339 47.294 133.339 47.835C133.339 48.376 133.447 48.8561 133.663 49.2754C133.88 49.6947 134.17 50.0227 134.536 50.2594C134.907 50.496 135.317 50.6144 135.763 50.6144C136.182 50.6144 136.551 50.5163 136.869 50.3202C137.186 50.1241 137.426 49.9145 137.589 49.6913V50.513H138.644ZM136.858 49.4174C136.615 49.573 136.331 49.6507 136.006 49.6507C135.695 49.6507 135.418 49.573 135.175 49.4174C134.931 49.2551 134.742 49.0387 134.607 48.7682C134.471 48.491 134.404 48.1799 134.404 47.835C134.404 47.4901 134.471 47.1824 134.607 46.9119C134.742 46.6414 134.931 46.4284 135.175 46.2729C135.418 46.1173 135.695 46.0396 136.006 46.0396C136.331 46.0396 136.615 46.1207 136.858 46.283C137.102 46.4385 137.291 46.6516 137.426 46.9221C137.562 47.1926 137.629 47.4969 137.629 47.835C137.629 48.1799 137.562 48.491 137.426 48.7682C137.291 49.0387 137.102 49.2551 136.858 49.4174ZM140.772 47.8451C140.772 48.1968 140.85 48.5113 141.005 48.7885C141.168 49.059 141.377 49.2754 141.634 49.4377C141.898 49.5933 142.179 49.671 142.476 49.671C142.814 49.671 143.108 49.5831 143.359 49.4073C143.609 49.2315 143.812 49.0489 143.967 48.8595L144.545 49.5696C144.417 49.7522 144.241 49.9246 144.018 50.0869C143.795 50.2425 143.541 50.3709 143.257 50.4724C142.973 50.5671 142.676 50.6144 142.365 50.6144C141.878 50.6144 141.438 50.4927 141.046 50.2492C140.654 50.0058 140.343 49.6744 140.113 49.2551C139.889 48.8359 139.778 48.3659 139.778 47.8451C139.778 47.3177 139.889 46.8477 140.113 46.4352C140.343 46.0159 140.654 45.6845 141.046 45.4411C141.438 45.1976 141.878 45.0759 142.365 45.0759C142.858 45.0759 143.298 45.1773 143.683 45.3802C144.069 45.5763 144.356 45.8333 144.545 46.1511L143.967 46.8612C143.812 46.6313 143.589 46.4352 143.298 46.2729C143.014 46.1038 142.736 46.0193 142.466 46.0193C142.148 46.0193 141.861 46.1004 141.604 46.2627C141.347 46.4183 141.144 46.6347 140.995 46.9119C140.846 47.1824 140.772 47.4935 140.772 47.8451ZM150.096 49.813H150.106L149.588 49.0523C149.44 49.1807 149.25 49.316 149.02 49.458C148.79 49.5933 148.49 49.6609 148.118 49.6609C147.604 49.6609 147.178 49.5222 146.839 49.245C146.508 48.961 146.312 48.5789 146.251 48.0987H150.329L150.339 47.6524C150.339 47.1385 150.231 46.6888 150.014 46.3033C149.798 45.9178 149.507 45.6169 149.142 45.4005C148.777 45.1773 148.371 45.0658 147.925 45.0658C147.438 45.0658 146.988 45.1807 146.576 45.4106C146.163 45.6338 145.832 45.9584 145.582 46.3844C145.331 46.8037 145.206 47.3109 145.206 47.906C145.206 48.4267 145.325 48.8933 145.561 49.3058C145.798 49.7116 146.126 50.0328 146.545 50.2695C146.971 50.4994 147.462 50.6144 148.016 50.6144C148.429 50.6144 148.824 50.5332 149.203 50.3709C149.582 50.2086 149.879 50.0227 150.096 49.813ZM146.88 46.3134C147.178 46.1241 147.526 46.0294 147.925 46.0294C148.148 46.0294 148.358 46.0801 148.554 46.1816C148.75 46.2762 148.912 46.4115 149.041 46.5873C149.176 46.7631 149.254 46.966 149.274 47.1959V47.267H146.292C146.386 46.8139 146.582 46.496 146.88 46.3134Z" fill="white"/>
</svg>
