<svg width="152" height="59" viewBox="0 0 152 59" fill="none" xmlns="http://www.w3.org/2000/svg">
<rect width="8.26553" height="29.2512" transform="matrix(0.865428 0.501033 -2.19699e-08 1 25.231 0)" fill="#2DA078"/>
<rect width="8.26553" height="29.1864" transform="matrix(0.865428 0.501033 -0.865428 0.501033 25.2588 29.2468)" fill="#2DBA89"/>
<rect width="8.26553" height="28.041" transform="matrix(0.865428 0.501033 -2.19699e-08 1 0 15.8394)" fill="#39CE9A"/>
<rect width="8.26553" height="27.9309" transform="matrix(0.865428 0.501033 -0.865428 0.501033 25.2588 0.0205078)" fill="#39CE9A"/>
<rect width="8.26553" height="29.2512" transform="matrix(0.865428 0.501033 -2.19699e-08 1 34.4333 5.26147)" fill="#2DA078"/>
<rect width="8.26553" height="29.1864" transform="matrix(0.865428 0.501033 -0.865428 0.501033 34.4614 34.5081)" fill="#2DBA89"/>
<rect width="8.26553" height="29.2467" transform="matrix(0.865428 0.501033 -2.19699e-08 1 9.20239 19.895)" fill="#39CE9A"/>
<rect width="8.26553" height="29.1864" transform="matrix(0.865428 0.501033 -0.865428 0.501033 34.4614 5.28198)" fill="#39CE9A"/>
<rect width="8.26553" height="43.7544" transform="matrix(0.865428 0.501033 -2.19699e-08 1 43.5752 10.5229)" fill="#2DA078"/>
<rect width="8.26553" height="29.1864" transform="matrix(0.865428 0.501033 -0.865428 0.501033 43.6033 39.7698)" fill="#2DBA89"/>
<rect width="8.26553" height="29.2467" transform="matrix(0.865428 0.501033 -2.19699e-08 1 18.3442 25.1567)" fill="#39CE9A"/>
<rect width="8.26553" height="29.1864" transform="matrix(0.865428 0.501033 -0.865428 0.501033 43.6033 10.5435)" fill="#39CE9A"/>
<path fill-rule="evenodd" clip-rule="evenodd" d="M120.674 16.5826C122.434 16.5826 124.005 17.0237 125.387 17.9058C126.794 18.7627 127.9 19.9725 128.705 21.5351C129.509 23.0725 129.911 24.8494 129.911 26.8657C129.911 28.882 129.509 30.6715 128.705 32.2341C127.9 33.7967 126.807 35.0191 125.425 35.9012C124.042 36.7833 122.497 37.2244 120.787 37.2244C119.38 37.2244 118.098 36.922 116.942 36.3171C115.811 35.687 114.918 34.9813 114.265 34.2V36.7329H110.382V6.24487L114.265 8.87026V19.8717C114.843 19.04 115.71 18.2838 116.866 17.6033C118.023 16.9228 119.292 16.5826 120.674 16.5826ZM120.146 20.1363C118.965 20.1363 117.909 20.4262 116.98 21.0058C116.075 21.5855 115.358 22.392 114.831 23.4254C114.328 24.4335 114.076 25.5803 114.076 26.8657C114.076 28.1511 114.328 29.3105 114.831 30.3438C115.358 31.352 116.075 32.1585 116.98 32.7634C117.909 33.3683 118.965 33.6707 120.146 33.6707C121.328 33.6707 122.371 33.3683 123.276 32.7634C124.181 32.1585 124.884 31.352 125.387 30.3438C125.915 29.3105 126.179 28.1511 126.179 26.8657C126.179 25.5803 125.915 24.4335 125.387 23.4254C124.884 22.392 124.181 21.5855 123.276 21.0058C122.371 20.4262 121.328 20.1363 120.146 20.1363ZM82.6537 51.202V16.9606H78.7704V19.4558C78.1169 18.6745 77.2246 18.0066 76.0936 17.4521C74.9877 16.8724 73.7435 16.5826 72.3611 16.5826C70.6269 16.5826 69.056 17.0237 67.6485 17.9058C66.2661 18.7879 65.1602 20.0103 64.3307 21.5729C63.5264 23.1103 63.1243 24.8872 63.1243 26.9035C63.1243 28.8946 63.539 30.6715 64.3684 32.2341C65.1979 33.7967 66.3163 35.0191 67.7239 35.9012C69.1314 36.7833 70.7148 37.2244 72.4743 37.2244C73.8566 37.2244 75.1008 36.8968 76.2067 36.2415C77.3378 35.5862 78.1923 34.8553 78.7704 34.0487V48.5766L82.6537 51.202ZM76.0559 32.7634C75.1511 33.343 74.0954 33.6329 72.889 33.6329C71.7077 33.6329 70.6646 33.343 69.7597 32.7634C68.8549 32.1585 68.1386 31.352 67.6108 30.3438C67.1081 29.3357 66.8567 28.1889 66.8567 26.9035C66.8567 25.6181 67.1081 24.4713 67.6108 23.4632C68.1386 22.4298 68.8549 21.6233 69.7597 21.0436C70.6646 20.4388 71.7077 20.1363 72.889 20.1363C74.0954 20.1363 75.1511 20.4388 76.0559 21.0436C76.9607 21.6233 77.6645 22.4298 78.1672 23.4632C78.6699 24.4713 78.9212 25.6181 78.9212 26.9035C78.9212 28.1889 78.6699 29.3357 78.1672 30.3438C77.6645 31.352 76.9607 32.1585 76.0559 32.7634ZM101.052 16.9984V28.945C101.052 30.4824 100.562 31.6796 99.5814 32.5365C98.6012 33.3935 97.4324 33.8219 96.0752 33.8219C94.9944 33.8219 94.1021 33.5699 93.3984 33.0658C92.7198 32.5365 92.2171 31.8434 91.8903 30.9865C91.5887 30.1296 91.4379 29.197 91.4379 28.1889V16.9984H87.5546V29.2474C87.5546 31.7426 88.1956 33.6959 89.4774 35.1073C90.7593 36.5187 92.4307 37.2244 94.4917 37.2244C96.0501 37.2244 97.3822 36.8716 98.4881 36.1659C99.6191 35.435 100.474 34.6032 101.052 33.6707V36.8464H104.935V16.9984H101.052ZM151.095 34.2378H151.133L149.21 31.4024C148.657 31.8812 147.953 32.3853 147.099 32.9146C146.244 33.4187 145.126 33.6707 143.743 33.6707C141.833 33.6707 140.25 33.154 138.993 32.1207C137.761 31.0621 137.032 29.6381 136.806 27.8486H151.962L152 26.1852C152 24.2697 151.598 22.5937 150.793 21.1571C149.989 19.7205 148.908 18.5989 147.551 17.7924C146.194 16.9606 144.686 16.5448 143.027 16.5448C141.217 16.5448 139.546 16.9732 138.013 17.8302C136.479 18.6619 135.248 19.8717 134.318 21.4595C133.388 23.0221 132.923 24.9124 132.923 27.1303C132.923 29.071 133.363 30.8101 134.242 32.3475C135.122 33.8597 136.341 35.0569 137.899 35.939C139.483 36.796 141.305 37.2244 143.366 37.2244C144.899 37.2244 146.37 36.922 147.777 36.3171C149.185 35.7122 150.291 35.0191 151.095 34.2378ZM139.144 21.1949C140.25 20.4892 141.544 20.1363 143.027 20.1363C143.856 20.1363 144.635 20.3253 145.364 20.7034C146.093 21.0562 146.696 21.5603 147.174 22.2156C147.677 22.8709 147.966 23.627 148.041 24.4839V24.7486H136.957C137.309 23.0599 138.038 21.8754 139.144 21.1949ZM110.892 50.9872H111.943V46.6357H113.189V45.6118H111.943V44.2397H110.892V45.6118H109.779V46.6357H110.892V50.9872ZM88.9445 48.2944C88.9445 48.6493 89.0228 48.9668 89.1794 49.2466C89.3427 49.5197 89.5538 49.7381 89.8124 49.9019C90.0779 50.0589 90.3604 50.1374 90.6599 50.1374C91.0003 50.1374 91.2964 50.0487 91.5483 49.8712C91.8001 49.6937 92.0044 49.5094 92.1609 49.3183L92.7429 50.035C92.6136 50.2193 92.4366 50.3934 92.212 50.5572C91.9873 50.7142 91.7321 50.8439 91.4462 50.9463C91.1603 51.0419 90.8607 51.0896 90.5476 51.0896C90.0575 51.0896 89.615 50.9668 89.2202 50.721C88.8254 50.4753 88.5123 50.1408 88.2808 49.7176C88.0562 49.2944 87.9438 48.82 87.9438 48.2944C87.9438 47.762 88.0562 47.2876 88.2808 46.8712C88.5123 46.448 88.8254 46.1135 89.2202 45.8677C89.615 45.622 90.0575 45.4991 90.5476 45.4991C91.0445 45.4991 91.487 45.6015 91.875 45.8063C92.263 46.0043 92.5523 46.2637 92.7429 46.5845L92.1609 47.3012C92.0044 47.0691 91.7797 46.8712 91.487 46.7073C91.2011 46.5367 90.922 46.4514 90.6497 46.4514C90.3298 46.4514 90.0405 46.5333 89.7818 46.6971C89.5231 46.8541 89.3189 47.0725 89.1691 47.3524C89.0194 47.6254 88.9445 47.9394 88.9445 48.2944ZM96.737 46.7483C96.6689 46.7142 96.5838 46.6869 96.4817 46.6664C96.3864 46.6391 96.2843 46.6254 96.1754 46.6254C95.9575 46.6254 95.7431 46.6835 95.5321 46.7995C95.3211 46.9087 95.1441 47.0691 95.0011 47.2807C94.865 47.4855 94.7969 47.7312 94.7969 48.0179V50.9872H93.735V45.6118H94.7969V46.6254C94.9467 46.2978 95.1713 46.0282 95.4708 45.8166C95.7772 45.6049 96.0971 45.4991 96.4306 45.4991C96.6825 45.4991 96.8765 45.5333 97.0127 45.6015L96.737 46.7483ZM99.6299 51.3251L98.7518 53.3422H99.8852L100.794 50.9872L102.999 45.6118H101.754L100.355 49.4924C100.328 49.5606 100.3 49.6323 100.273 49.7074C100.253 49.7756 100.229 49.8473 100.202 49.9224C100.174 49.8473 100.151 49.779 100.13 49.7176C100.11 49.6562 100.089 49.605 100.069 49.564L98.3944 45.6118H97.1691L99.6605 51.2535L99.6299 51.3251ZM106.584 45.5196C107.061 45.5196 107.486 45.6391 107.86 45.878C108.242 46.1101 108.541 46.4343 108.759 46.8507C108.977 47.2671 109.086 47.7483 109.086 48.2944C109.086 48.8336 108.977 49.3149 108.759 49.7381C108.541 50.1545 108.245 50.4821 107.871 50.721C107.496 50.9599 107.078 51.0794 106.615 51.0794C106.233 51.0794 105.886 50.9975 105.573 50.8337C105.267 50.6698 105.025 50.4821 104.848 50.2705V53.2398H103.786V45.6015H104.848V46.3899C105.005 46.1647 105.24 45.9633 105.553 45.7858C105.866 45.6084 106.21 45.5196 106.584 45.5196ZM106.441 46.4923C106.121 46.4923 105.835 46.5708 105.583 46.7278C105.338 46.8848 105.144 47.0998 105.001 47.3729C104.865 47.6391 104.797 47.9463 104.797 48.2944C104.797 48.6357 104.865 48.9429 105.001 49.2159C105.144 49.4889 105.338 49.7074 105.583 49.8712C105.835 50.0282 106.121 50.1067 106.441 50.1067C106.761 50.1067 107.044 50.0282 107.289 49.8712C107.534 49.7074 107.724 49.4889 107.86 49.2159C108.003 48.9429 108.075 48.6357 108.075 48.2944C108.075 47.9463 108.003 47.6391 107.86 47.3729C107.724 47.0998 107.534 46.8848 107.289 46.7278C107.044 46.5708 106.761 46.4923 106.441 46.4923ZM119.233 48.2944C119.233 48.8405 119.11 49.3251 118.865 49.7483C118.627 50.1647 118.3 50.4924 117.885 50.7313C117.477 50.9702 117.017 51.0896 116.507 51.0896C115.996 51.0896 115.533 50.9702 115.118 50.7313C114.703 50.4924 114.373 50.1647 114.127 49.7483C113.889 49.3251 113.77 48.8405 113.77 48.2944C113.77 47.7483 113.889 47.2671 114.127 46.8507C114.373 46.4275 114.703 46.0964 115.118 45.8575C115.533 45.6186 115.996 45.4991 116.507 45.4991C117.017 45.4991 117.477 45.6186 117.885 45.8575C118.3 46.0964 118.627 46.4275 118.865 46.8507C119.11 47.2671 119.233 47.7483 119.233 48.2944ZM118.161 48.2944C118.168 47.9326 118.096 47.6152 117.946 47.3422C117.803 47.0623 117.606 46.8473 117.354 46.6971C117.102 46.5401 116.82 46.4616 116.507 46.4616C116.193 46.4616 115.908 46.5401 115.649 46.6971C115.397 46.8473 115.196 47.0623 115.046 47.3422C114.903 47.6152 114.835 47.9326 114.842 48.2944C114.835 48.6493 114.903 48.9668 115.046 49.2466C115.196 49.5197 115.397 49.7347 115.649 49.8917C115.908 50.0487 116.193 50.1272 116.507 50.1272C116.82 50.1272 117.102 50.0487 117.354 49.8917C117.606 49.7347 117.803 49.5197 117.946 49.2466C118.096 48.9668 118.168 48.6493 118.161 48.2944ZM125.681 46.5538C125.926 46.6766 126.144 46.8336 126.335 47.0248L126.937 46.3592C126.692 46.0589 126.382 45.8404 126.008 45.7039C125.633 45.5674 125.286 45.4991 124.966 45.4991C124.633 45.4991 124.32 45.564 124.027 45.6937C123.734 45.8166 123.496 45.994 123.312 46.2261C123.135 46.4514 123.047 46.7244 123.047 47.0452C123.047 47.4275 123.139 47.7312 123.322 47.9565C123.513 48.1749 123.748 48.3456 124.027 48.4685C124.313 48.5845 124.602 48.6835 124.895 48.7654C125.092 48.8132 125.273 48.8678 125.436 48.9292C125.599 48.9838 125.729 49.0589 125.824 49.1545C125.926 49.2432 125.977 49.3695 125.977 49.5333C125.977 49.704 125.93 49.8405 125.834 49.9429C125.746 50.0384 125.637 50.1101 125.508 50.1579C125.378 50.1988 125.249 50.2193 125.12 50.2193C124.779 50.2193 124.49 50.1613 124.252 50.0453C124.02 49.9224 123.813 49.7552 123.629 49.5435L122.914 50.1579C123.179 50.4992 123.499 50.7415 123.874 50.8849C124.255 51.0214 124.64 51.0896 125.028 51.0896C125.354 51.0896 125.664 51.0282 125.957 50.9053C126.256 50.7756 126.498 50.5913 126.682 50.3524C126.872 50.1135 126.968 49.8268 126.968 49.4924C126.968 49.1033 126.879 48.8029 126.702 48.5913C126.532 48.3729 126.314 48.2091 126.049 48.0998C125.783 47.9838 125.511 47.8882 125.232 47.8132C124.912 47.7312 124.643 47.6391 124.425 47.5367C124.214 47.4343 124.105 47.2603 124.098 47.0145C124.098 46.837 124.146 46.7039 124.241 46.6152C124.337 46.5196 124.452 46.4548 124.589 46.4207C124.731 46.3865 124.874 46.3695 125.017 46.3695C125.222 46.3695 125.443 46.4309 125.681 46.5538ZM130.925 45.5196C131.401 45.5196 131.826 45.6391 132.201 45.878C132.582 46.1101 132.882 46.4343 133.099 46.8507C133.317 47.2671 133.426 47.7483 133.426 48.2944C133.426 48.8336 133.317 49.3149 133.099 49.7381C132.882 50.1545 132.585 50.4821 132.211 50.721C131.837 50.9599 131.418 51.0794 130.955 51.0794C130.574 51.0794 130.227 50.9975 129.914 50.8337C129.607 50.6698 129.366 50.4821 129.189 50.2705V53.2398H128.127V45.6015H129.189V46.3899C129.345 46.1647 129.58 45.9633 129.893 45.7858C130.206 45.6084 130.55 45.5196 130.925 45.5196ZM130.782 46.4923C130.462 46.4923 130.176 46.5708 129.924 46.7278C129.679 46.8848 129.485 47.0998 129.342 47.3729C129.206 47.6391 129.138 47.9463 129.138 48.2944C129.138 48.6357 129.206 48.9429 129.342 49.2159C129.485 49.4889 129.679 49.7074 129.924 49.8712C130.176 50.0282 130.462 50.1067 130.782 50.1067C131.102 50.1067 131.384 50.0282 131.629 49.8712C131.874 49.7074 132.065 49.4889 132.201 49.2159C132.344 48.9429 132.415 48.6357 132.415 48.2944C132.415 47.9463 132.344 47.6391 132.201 47.3729C132.065 47.0998 131.874 46.8848 131.629 46.7278C131.384 46.5708 131.102 46.4923 130.782 46.4923ZM139.561 50.9872V45.6118H138.5V46.3183C138.329 46.0998 138.101 45.9087 137.815 45.7449C137.536 45.5811 137.21 45.4991 136.835 45.4991C136.331 45.4991 135.882 45.6186 135.487 45.8575C135.093 46.0896 134.783 46.4172 134.558 46.8405C134.334 47.2568 134.221 47.7381 134.221 48.2842C134.221 48.8302 134.33 49.3149 134.548 49.7381C134.766 50.1613 135.058 50.4924 135.426 50.7313C135.8 50.9702 136.212 51.0896 136.662 51.0896C137.084 51.0896 137.455 50.9907 137.775 50.7927C138.094 50.5948 138.336 50.3831 138.5 50.1579V50.9872H139.561ZM137.764 49.8814C137.519 50.0384 137.233 50.1169 136.907 50.1169C136.594 50.1169 136.314 50.0384 136.069 49.8814C135.824 49.7176 135.634 49.4992 135.498 49.2261C135.361 48.9463 135.293 48.6323 135.293 48.2842C135.293 47.936 135.361 47.6254 135.498 47.3524C135.634 47.0794 135.824 46.8643 136.069 46.7073C136.314 46.5503 136.594 46.4718 136.907 46.4718C137.233 46.4718 137.519 46.5538 137.764 46.7176C138.009 46.8746 138.2 47.0896 138.336 47.3626C138.472 47.6357 138.54 47.9429 138.54 48.2842C138.54 48.6323 138.472 48.9463 138.336 49.2261C138.2 49.4992 138.009 49.7176 137.764 49.8814ZM141.704 48.2944C141.704 48.6493 141.782 48.9668 141.939 49.2466C142.102 49.5197 142.313 49.7381 142.572 49.9019C142.837 50.0589 143.12 50.1374 143.419 50.1374C143.76 50.1374 144.056 50.0487 144.308 49.8712C144.559 49.6937 144.764 49.5094 144.92 49.3183L145.502 50.035C145.373 50.2193 145.196 50.3934 144.971 50.5572C144.747 50.7142 144.491 50.8439 144.205 50.9463C143.92 51.0419 143.62 51.0896 143.307 51.0896C142.817 51.0896 142.374 50.9668 141.98 50.721C141.585 50.4753 141.272 50.1408 141.04 49.7176C140.815 49.2944 140.703 48.82 140.703 48.2944C140.703 47.762 140.815 47.2876 141.04 46.8712C141.272 46.448 141.585 46.1135 141.98 45.8677C142.374 45.622 142.817 45.4991 143.307 45.4991C143.804 45.4991 144.246 45.6015 144.634 45.8063C145.022 46.0043 145.312 46.2637 145.502 46.5845L144.92 47.3012C144.764 47.0691 144.539 46.8712 144.246 46.7073C143.96 46.5367 143.681 46.4514 143.409 46.4514C143.089 46.4514 142.8 46.5333 142.541 46.6971C142.282 46.8541 142.078 47.0725 141.928 47.3524C141.779 47.6254 141.704 47.9394 141.704 48.2944ZM151.089 50.2808H151.099L150.579 49.5128C150.429 49.6425 150.238 49.779 150.007 49.9224C149.775 50.0589 149.472 50.1272 149.098 50.1272C148.581 50.1272 148.152 49.9872 147.811 49.7074C147.478 49.4207 147.281 49.035 147.219 48.5504H151.324L151.334 48.0998C151.334 47.5811 151.225 47.1271 151.007 46.7381C150.79 46.349 150.497 46.0452 150.129 45.8268C149.762 45.6015 149.353 45.4889 148.904 45.4889C148.414 45.4889 147.961 45.6049 147.546 45.837C147.131 46.0623 146.797 46.3899 146.545 46.82C146.293 47.2432 146.168 47.7551 146.168 48.3558C146.168 48.8814 146.287 49.3524 146.525 49.7688C146.763 50.1784 147.093 50.5026 147.515 50.7415C147.944 50.9736 148.438 51.0896 148.996 51.0896C149.411 51.0896 149.809 51.0077 150.191 50.8439C150.572 50.6801 150.871 50.4924 151.089 50.2808ZM147.852 46.7483C148.152 46.5572 148.502 46.4616 148.904 46.4616C149.129 46.4616 149.34 46.5128 149.537 46.6152C149.735 46.7108 149.898 46.8473 150.027 47.0248C150.163 47.2022 150.242 47.407 150.262 47.6391V47.7108H147.26C147.355 47.2534 147.553 46.9326 147.852 46.7483Z" fill="white"/>
</svg>
